<?xml version="1.0" encoding="iso-8859-1"?>
<!-- Generator: Adobe Illustrator 19.0.0, SVG Export Plug-In . SVG Version: 6.00 Build 0)  -->
<svg version="1.1" id="Layer_1" xmlns="http://www.w3.org/2000/svg" xmlns:xlink="http://www.w3.org/1999/xlink" x="0px" y="0px"
	 viewBox="0 0 512.002 512.002" style="enable-background:new 0 0 512.002 512.002;" xml:space="preserve">
<path style="fill:#385C8E;" d="M491.584,192.576l-55.918-6.914c-0.919-2.351-1.884-4.681-2.892-6.991l34.648-44.429
	c7.227-9.267,6.412-22.464-1.901-30.773l-57.028-56.995c-8.308-8.304-21.501-9.115-30.762-1.893l-44.414,34.633
	c-2.31-1.008-4.642-1.974-6.994-2.894l-6.915-55.904c-1.443-11.66-11.348-20.415-23.097-20.415h-80.635
	c-11.748,0-21.654,8.755-23.097,20.416l-6.912,55.904c-2.351,0.918-4.682,1.884-6.988,2.89l-44.417-34.642
	c-9.266-7.225-22.461-6.412-30.768,1.893l-57.021,57.009c-8.308,8.307-9.123,21.506-1.898,30.771l34.645,44.417
	c-1.01,2.312-1.977,4.647-2.898,7.002l-55.906,6.914C8.757,194.019,0,203.926,0,215.674v80.642c0,11.75,8.758,21.656,20.421,23.097
	l55.9,6.903c0.92,2.352,1.885,4.684,2.894,6.994l-34.639,44.417c-7.224,9.264-6.412,22.46,1.894,30.767l57.021,57.031
	c8.307,8.308,21.507,9.121,30.771,1.894l44.418-34.647c2.306,1.007,4.634,1.972,6.985,2.889l6.914,55.921
	c1.441,11.661,11.348,20.418,23.097,20.418h80.637c11.748,0,21.654-8.758,23.097-20.416l6.915-55.92
	c2.351-0.92,4.684-1.885,6.993-2.894l44.424,34.65c9.269,7.225,22.463,6.412,30.773-1.897l57.015-57.031
	c8.305-8.307,9.117-21.504,1.891-30.768l-34.639-44.409c1.01-2.312,1.977-4.647,2.897-7l55.901-6.903
	c11.663-1.441,20.421-11.348,20.421-23.097v-80.642C512,203.926,503.242,194.019,491.584,192.576z M310.303,256.009
	c0,29.938-24.362,54.294-54.306,54.294c-29.941,0-54.3-24.356-54.3-54.294c0-29.947,24.359-54.311,54.3-54.311
	C285.941,201.698,310.303,226.061,310.303,256.009z"/>
<path style="fill:#1D3366;" d="M491.584,192.576l-55.918-6.914c-0.919-2.351-1.884-4.681-2.892-6.991l34.648-44.429
	c7.227-9.267,6.412-22.464-1.901-30.773l-57.028-56.995c-8.308-8.304-21.501-9.115-30.762-1.893l-44.414,34.633
	c-2.31-1.008-4.642-1.974-6.994-2.894l-6.915-55.904c-1.443-11.66-11.348-20.415-23.097-20.415H256v201.695
	c29.943,0.002,54.303,24.363,54.303,54.311c0,29.936-24.36,54.292-54.303,54.294v201.697h40.311
	c11.748,0,21.654-8.758,23.097-20.416l6.915-55.92c2.351-0.92,4.684-1.885,6.993-2.894l44.425,34.65
	c9.269,7.225,22.463,6.412,30.773-1.897l57.015-57.031c8.305-8.307,9.117-21.504,1.891-30.768l-34.639-44.409
	c1.01-2.312,1.977-4.647,2.897-7l55.901-6.903C503.242,317.97,512,308.064,512,296.314v-80.642
	C512,203.926,503.242,194.019,491.584,192.576z"/>
<g>
</g>
<g>
</g>
<g>
</g>
<g>
</g>
<g>
</g>
<g>
</g>
<g>
</g>
<g>
</g>
<g>
</g>
<g>
</g>
<g>
</g>
<g>
</g>
<g>
</g>
<g>
</g>
<g>
</g>
</svg>
