<svg enable-background="new 0 0 24 24" height="512" viewBox="0 0 24 24" width="512" xmlns="http://www.w3.org/2000/svg"><path d="m9.543 1.633c-.586.586-.586 1.535 0 2.121l-1.414-1.414c-.586-.586-1.536-.586-2.121 0-.586.586-.586 1.536 0 2.121l-.708-.707c-.585-.586-1.535-.586-2.121 0s-.586 1.536 0 2.122l.707.707c-.586-.586-1.535-.586-2.121 0-.586.585-.586 1.535 0 2.121l8.132 8.132-4.24 1.016-.003.002c-.254.057-.502.191-.707.396-.587.587-.587 1.534 0 2.121.205.205.46.347.729.403l-.004-.002 8.433 1.933c1.342.308 2.748-.097 3.722-1.07l3.385-3.385c1.953-1.953 1.953-5.118 0-7.071l-.707-.707-4.596-4.596-4.243-4.243c-.588-.586-1.537-.586-2.123 0z" fill="#ffcc80"/><g fill="#ffa726"><path d="m9.111 2.616 6.796 6.795c-.198.198-.51.198-.707 0l-5.657-5.657c-.312-.311-.46-.728-.432-1.138z"/><path d="m5.576 3.323 7.855 7.855c-.197.198-.509.198-.707 0l-6.716-6.717c-.312-.311-.46-.728-.432-1.138z"/><path d="m2.748 4.737 8.209 8.209c-.198.198-.509.198-.707 0l-7.071-7.07c-.311-.312-.459-.729-.431-1.139z"/></g><path d="m10.604 13.095c-.127 0-.254-.05-.354-.149l-7.071-7.07c-.311-.312-.459-.729-.431-1.139l8.209 8.209c-.099.099-.226.149-.353.149zm-6.364-9.781c-.384 0-.768.146-1.061.439-.586.586-.586 1.536 0 2.122l.707.707c-.293-.292-.677-.438-1.061-.438s-.768.146-1.061.439c-.586.585-.586 1.535 0 2.121l8.132 8.132-4.24 1.016-.003.002c-.254.057-.502.191-.707.396-.587.587-.587 1.534 0 2.121.205.205.46.347.729.403l-.004-.002 6.329 1.451v-11.769l-5.992-5.993-.708-.707c-.293-.293-.676-.44-1.06-.44zm2.828-1.414c-.384 0-.768.147-1.06.44-.463.463-.56 1.154-.291 1.712-.11-.229-.158-.48-.141-.729l6.424 6.424v-3.536l-2.457-2.457-1.414-1.414c-.293-.293-.677-.44-1.061-.44zm3.536-.707c-.384 0-.768.146-1.061.439-.443.444-.551 1.095-.324 1.639-.086-.208-.123-.433-.108-.655l2.889 2.888v-3.535l-.336-.336c-.293-.293-.677-.44-1.06-.44z" fill="#deb26f"/><g fill="#de9121"><path d="m9.111 2.616c-.015.222.022.447.108.655.073.176.181.341.324.483l2.457 2.457v-.707z"/><path d="m5.576 3.323c-.017.249.031.5.141.729.071.148.168.287.291.409l5.992 5.993v-.707z"/><path d="m2.748 4.737c-.028.41.12.827.431 1.139l7.071 7.07c.099.099.226.149.354.149.127 0 .254-.05.353-.149z"/></g></svg>